<?xml version="1.0" encoding="utf-8"?>
<!-- Generator: Adobe Illustrator 26.4.1, SVG Export Plug-In . SVG Version: 6.00 Build 0)  -->
<svg version="1.1" id="Слой_1" xmlns="http://www.w3.org/2000/svg" xmlns:xlink="http://www.w3.org/1999/xlink" x="0px" y="0px"
	 viewBox="0 0 65.7 65.8" style="enable-background:new 0 0 65.7 65.8;" xml:space="preserve">
<style type="text/css">
	.st0{fill:#FFFFFF;}
	.st1{clip-path:url(#SVGID_00000162327641088031732340000013702522215080858261_);fill:#FBBC05;}
	.st2{clip-path:url(#SVGID_00000121242693576373485410000017945085978932268431_);fill:#EA4335;}
	.st3{clip-path:url(#SVGID_00000107577809387351288990000002246473308169818529_);fill:#34A853;}
	.st4{clip-path:url(#SVGID_00000083810782242453555550000004909462699566597283_);fill:#4285F4;}
</style>
<g>
	<circle class="st0" cx="32.8" cy="32.9" r="32.4"/>
	<g>
		<g>
			<defs>
				<path id="SVGID_1_" d="M58.6,28.2H33.5v10.4h14.5c-1.3,6.6-7,10.4-14.5,10.4c-8.8,0-15.9-7.1-15.9-15.9s7.1-15.9,15.9-15.9
					c3.8,0,7.2,1.3,9.9,3.6l7.8-7.8c-4.8-4.2-10.9-6.7-17.8-6.7c-14.9,0-27,12-27,27s12,27,27,27c13.5,0,25.7-9.8,25.7-27
					C59.2,31.5,58.9,29.8,58.6,28.2z"/>
			</defs>
			<clipPath id="SVGID_00000001634734666069130290000008107514936330878389_">
				<use xlink:href="#SVGID_1_"  style="overflow:visible;"/>
			</clipPath>
			<path style="clip-path:url(#SVGID_00000001634734666069130290000008107514936330878389_);fill:#FBBC05;" d="M4.1,49V17.2
				l20.8,15.9L4.1,49z"/>
		</g>
		<g>
			<defs>
				<path id="SVGID_00000104692041693557697640000015202575159905889159_" d="M58.6,28.2H33.5v10.4h14.5c-1.3,6.6-7,10.4-14.5,10.4
					c-8.8,0-15.9-7.1-15.9-15.9s7.1-15.9,15.9-15.9c3.8,0,7.2,1.3,9.9,3.6l7.8-7.8c-4.8-4.2-10.9-6.7-17.8-6.7c-14.9,0-27,12-27,27
					s12,27,27,27c13.5,0,25.7-9.8,25.7-27C59.2,31.5,58.9,29.8,58.6,28.2z"/>
			</defs>
			<clipPath id="SVGID_00000128448671707573020400000018403930063586684063_">
				<use xlink:href="#SVGID_00000104692041693557697640000015202575159905889159_"  style="overflow:visible;"/>
			</clipPath>
			<path style="clip-path:url(#SVGID_00000128448671707573020400000018403930063586684063_);fill:#EA4335;" d="M4.1,17.2l20.8,15.9
				l8.6-7.5l29.4-4.8V3.7H4.1V17.2z"/>
		</g>
		<g>
			<g>
				<defs>
					<path id="SVGID_00000067915020150067631080000013952495509995085190_" d="M58.6,28.2H33.5v10.4h14.5c-1.3,6.6-7,10.4-14.5,10.4
						c-8.8,0-15.9-7.1-15.9-15.9s7.1-15.9,15.9-15.9c3.8,0,7.2,1.3,9.9,3.6l7.8-7.8c-4.8-4.2-10.9-6.7-17.8-6.7c-14.9,0-27,12-27,27
						s12,27,27,27c13.5,0,25.7-9.8,25.7-27C59.2,31.5,58.9,29.8,58.6,28.2z"/>
				</defs>
				<clipPath id="SVGID_00000071539212750147432740000012910043479982684300_">
					<use xlink:href="#SVGID_00000067915020150067631080000013952495509995085190_"  style="overflow:visible;"/>
				</clipPath>
				<path style="clip-path:url(#SVGID_00000071539212750147432740000012910043479982684300_);fill:#34A853;" d="M4.1,49l36.8-28.2
					l9.7,1.2L62.9,3.7v58.8H4.1V49z"/>
			</g>
		</g>
		<g>
			<g>
				<defs>
					<path id="SVGID_00000178203483669137345610000004537226929438913678_" d="M58.6,28.2H33.5v10.4h14.5c-1.3,6.6-7,10.4-14.5,10.4
						c-8.8,0-15.9-7.1-15.9-15.9s7.1-15.9,15.9-15.9c3.8,0,7.2,1.3,9.9,3.6l7.8-7.8c-4.8-4.2-10.9-6.7-17.8-6.7c-14.9,0-27,12-27,27
						s12,27,27,27c13.5,0,25.7-9.8,25.7-27C59.2,31.5,58.9,29.8,58.6,28.2z"/>
				</defs>
				<clipPath id="SVGID_00000031915451057543836690000011600299496337440177_">
					<use xlink:href="#SVGID_00000178203483669137345610000004537226929438913678_"  style="overflow:visible;"/>
				</clipPath>
				<path style="clip-path:url(#SVGID_00000031915451057543836690000011600299496337440177_);fill:#4285F4;" d="M62.9,62.5l-38-29.4
					L20,29.4l42.9-12.3V62.5z"/>
			</g>
		</g>
	</g>
</g>
</svg>
