<?xml version="1.0" encoding="utf-8"?>
<!-- Generator: Adobe Illustrator 26.4.1, SVG Export Plug-In . SVG Version: 6.00 Build 0)  -->
<svg version="1.1" id="图层_1" xmlns="http://www.w3.org/2000/svg" xmlns:xlink="http://www.w3.org/1999/xlink" x="0px" y="0px"
	 viewBox="0 0 318.9 708.66" style="enable-background:new 0 0 318.9 708.66;" xml:space="preserve">
<style type="text/css">
	.st0{fill:#FBF7C2;}
	.st1{fill:#040000;}
	.st2{fill:#D8D4A9;}
</style>
<rect x="0.37" y="0.83" class="st0" width="318.15" height="707"/>
<g>
	<g>
		<path class="st1" d="M146.47,273.07c-6.77,0-12.32,4.76-12.32,10.61c0,5.81,5.55,10.58,12.32,10.58l0,0
			c6.77,0,12.35-4.76,12.35-10.58C158.83,277.83,153.24,273.07,146.47,273.07z M146.47,289.49c-3.74,0-6.77-2.63-6.77-5.81
			c0-3.22,3.02-5.85,6.77-5.85c3.75,0,6.8,2.63,6.8,5.85C153.27,286.87,150.22,289.49,146.47,289.49z"/>
		<polygon class="st1" points="112.18,294.12 120.36,294.12 120.36,293.37 119.47,293.01 119.44,288.08 123.02,284.89 128.34,293.1 
			127.62,293.37 127.62,294.12 136.72,294.12 136.72,293.37 135.73,293.01 127.78,281.08 135.86,274.12 136.72,273.82 
			136.72,273.26 126.4,273.26 126.4,273.85 127.12,274.18 119.44,281.25 119.44,274.12 120.42,273.85 120.42,273.26 112.34,273.23 
			112.34,273.85 113.16,274.38 113.13,293.11 112.18,293.37 112.18,294.12 		"/>
		<path class="st1" d="M194.37,273.07c-6.77,0-12.32,4.76-12.32,10.61c0,5.81,5.55,10.58,12.32,10.58l0,0
			c6.77,0,12.35-4.76,12.35-10.58C206.72,277.83,201.14,273.07,194.37,273.07z M194.37,289.49c-3.74,0-6.77-2.63-6.77-5.81
			c0-3.22,3.02-5.85,6.77-5.85s6.8,2.63,6.8,5.85C201.17,286.87,198.11,289.49,194.37,289.49z"/>
		<polygon class="st1" points="160.07,294.12 168.25,294.12 168.25,293.37 167.36,293.01 167.33,288.08 170.91,284.89 176.23,293.1 
			175.51,293.37 175.51,294.12 184.61,294.12 184.61,293.37 183.63,293.01 175.68,281.08 183.76,274.12 184.61,273.82 
			184.61,273.26 174.3,273.26 174.3,273.85 175.02,274.18 167.33,281.25 167.33,274.12 168.32,273.85 168.32,273.26 160.24,273.23 
			160.24,273.85 161.06,274.38 161.02,293.11 160.07,293.37 160.07,294.12 		"/>
	</g>
	<g>
		<path class="st1" d="M144.45,254.4c0.28-0.33,0.43-0.65,0.52-0.89c0.12-0.32,0.72-2.36,0.72-10.84v-5.12
			c-6.47-4.2-10.37-10.79-10.37-17.9c0-7.16,3.89-13.8,10.37-18.01v-8.83c0-5.89-0.37-7.26-0.41-7.4c-0.04-0.1-0.11-0.22-0.2-0.33
			c-0.41-0.1-0.84-0.16-1.32-0.16c-0.06,0-0.13,0-0.19,0c-16.13,6.08-26.54,19.69-26.54,34.74c0,7.58,2.66,14.92,7.69,21.2
			c4.87,6.08,11.6,10.8,19.49,13.64C144.29,254.46,144.37,254.43,144.45,254.4z"/>
		<path class="st1" d="M180.55,234.55c-1.3,1.25-2.76,2.34-4.32,3.31v4.81c0,8.16,0.48,10.3,0.63,10.77
			c0.1,0.31,0.28,0.72,0.71,1.18c0.06,0.02,0.12,0.04,0.18,0.06c10.8-3.76,19.49-11.02,24.12-20.11H180.55z"/>
		<path class="st1" d="M176.23,201.32c1.56,0.96,3.01,2.05,4.3,3.3h21.31c-4.89-9.6-14.2-17.05-25.62-20.6V201.32z"/>
		<path class="st1" d="M184.75,262c-4.18,0-7.18-0.61-9.18-1.87c-2.03-1.27-3.39-2.95-4.04-4.99c-0.6-1.89-0.89-5.96-0.89-12.47
			v-79.25h-0.88l-30.82,14.08v1.21c1.27-0.27,2.45-0.4,3.53-0.4c1.87,0,3.56,0.5,5.02,1.47c1.46,0.98,2.48,2.21,3.03,3.65
			c0.33,0.86,0.77,2.77,0.77,9.36v49.87c0,6.67-0.35,10.86-1.07,12.79c-0.77,2.07-2.25,3.7-4.4,4.87
			c-2.08,1.13-5.35,1.67-10.01,1.67h-1.39v1.36h51.35V262H184.75L184.75,262z"/>
	</g>
</g>
<g>
	<g>
		<path d="M59.06,363.15c0-4.21,0.03-8.23,0.12-10.38h-0.09c-0.86,2.89-5.22,13.48-7.95,20.26h-1.63
			c-2.06-5.25-6.57-17.04-7.55-20.29H41.9c0.15,2.46,0.21,7.46,0.21,11.15v9.15h-1.66v-21.49h2.49c2.95,7.37,6.66,17.01,7.46,19.43
			h0.06c0.49-1.57,4.79-12.28,7.8-19.43h2.46v21.49h-1.66V363.15z"/>
		<path d="M68.94,365.61l-2.73,7.43h-1.69l7.89-21.49h1.96l8.23,21.49h-1.81L78,365.61H68.94z M77.45,364.07
			c-2.39-6.39-3.62-9.46-4.05-10.9h-0.03c-0.52,1.63-1.9,5.43-3.84,10.9H77.45z"/>
		<path d="M86.41,351.55h1.66v11.18c1.72-1.66,7.86-7.43,11.7-11.18h2.21l-9.64,9.15l10.19,12.34h-2.06l-9.33-11.27l-3.07,2.7v8.57
			h-1.66V351.55z"/>
		<path d="M118.22,362.48h-10.96v9.03h12l-0.25,1.54H105.6v-21.49h13.17v1.54h-11.51v7.86h10.96V362.48z"/>
		<path d="M131.63,367.26c0.65,2.85,2.55,4.54,6.08,4.54c3.93,0,5.43-1.96,5.43-4.3c0-2.42-1.07-3.93-5.8-5.1
			c-4.54-1.14-6.51-2.61-6.51-5.71c0-2.82,2.06-5.46,6.66-5.46c4.73,0,6.72,2.89,7,5.5h-1.72c-0.49-2.3-2-3.96-5.37-3.96
			c-3.1,0-4.79,1.44-4.79,3.84c0,2.36,1.41,3.29,5.37,4.27c6.05,1.5,6.94,3.93,6.94,6.51c0,3.16-2.3,5.89-7.28,5.89
			c-5.37,0-7.34-3.13-7.74-6.02H131.63z"/>
		<path d="M149.62,351.55h1.66v9.36h12.89v-9.36h1.66v21.49h-1.66v-10.59h-12.89v10.59h-1.66V351.55z"/>
		<path d="M189.9,362.14c0,5.86-3.13,11.21-9.76,11.21c-6.05,0-9.58-4.88-9.58-11.05c0-6.08,3.41-11.05,9.79-11.05
			C186.25,351.24,189.9,355.87,189.9,362.14z M172.34,362.2c0,4.94,2.73,9.61,7.89,9.61c5.56,0,7.89-4.54,7.89-9.64
			c0-5-2.64-9.4-7.83-9.4C174.77,352.77,172.34,357.35,172.34,362.2z"/>
		<path d="M194.63,351.55h7.68c3.93,0,6.63,2.18,6.63,5.99c0,3.87-2.67,6.14-6.85,6.14h-5.77v9.36h-1.69V351.55z M196.32,362.14
			h5.93c3.47,0,4.91-1.84,4.91-4.54c0-2.89-1.9-4.51-4.79-4.51h-6.05V362.14z"/>
		<path d="M213.29,351.55h7.67c3.93,0,6.63,2.18,6.63,5.99c0,3.87-2.67,6.14-6.85,6.14h-5.77v9.36h-1.69V351.55z M214.98,362.14
			h5.93c3.47,0,4.91-1.84,4.91-4.54c0-2.89-1.9-4.51-4.79-4.51h-6.05V362.14z"/>
		<path d="M233.62,351.55v21.49h-1.66v-21.49H233.62z"/>
		<path d="M239.94,373.04v-21.49h2.46c3.35,5.16,11.21,17.16,12.56,19.5h0.03c-0.18-3.1-0.15-6.26-0.15-9.76v-9.73h1.69v21.49h-2.27
			c-3.19-4.97-11.17-17.47-12.71-19.83h-0.03c0.15,2.83,0.12,5.96,0.12,9.86v9.98H239.94z"/>
		<path d="M279.12,373.04h-1.38c-0.12-0.25-0.18-1.35-0.21-3.44c-0.77,1.47-2.46,3.68-6.94,3.68c-6.17,0-9.33-4.7-9.33-10.81
			c0-6.42,3.38-11.24,9.67-11.24c4.64,0,7.71,2.43,8.38,6.39h-1.66c-0.92-3.04-3.04-4.85-6.78-4.85c-5.37,0-7.83,4.18-7.83,9.61
			c0,4.91,2.36,9.36,7.61,9.36c5.37,0,6.88-3.5,6.88-8.26v-0.25h-6.94v-1.53h8.53V373.04z"/>
	</g>
	<g>
		<path d="M40.57,402.17c0.64,2.82,2.51,4.48,6,4.48c3.88,0,5.36-1.94,5.36-4.24c0-2.39-1.06-3.88-5.72-5.03
			c-4.48-1.12-6.42-2.58-6.42-5.63c0-2.79,2.03-5.39,6.57-5.39c4.66,0,6.63,2.85,6.91,5.42h-1.7c-0.48-2.27-1.97-3.91-5.3-3.91
			c-3.06,0-4.73,1.42-4.73,3.79c0,2.33,1.39,3.24,5.3,4.21c5.97,1.48,6.85,3.88,6.85,6.42c0,3.12-2.27,5.82-7.18,5.82
			c-5.3,0-7.24-3.09-7.63-5.94H40.57z"/>
		<path d="M59.95,386.66v21.2h-1.64v-21.2H59.95z"/>
		<path d="M84.55,398.11c0-4.15,0.03-8.12,0.12-10.24h-0.09c-0.85,2.85-5.15,13.3-7.84,19.99h-1.61
			c-2.03-5.18-6.48-16.81-7.45-20.02h-0.06c0.15,2.42,0.21,7.36,0.21,10.99v9.03h-1.64v-21.2h2.45c2.91,7.27,6.57,16.78,7.36,19.17
			h0.06c0.48-1.54,4.73-12.12,7.69-19.17h2.42v21.2h-1.64V398.11z"/>
		<path d="M92.43,386.66H100c3.88,0,6.54,2.15,6.54,5.91c0,3.82-2.64,6.06-6.75,6.06h-5.69v9.24h-1.67V386.66z M94.09,397.11h5.85
			c3.42,0,4.85-1.82,4.85-4.48c0-2.85-1.88-4.45-4.73-4.45h-5.97V397.11z"/>
		<path d="M110.84,386.66h1.64v19.69h11.39l-0.3,1.51h-12.72V386.66z"/>
		<path d="M139.59,397.45h-10.81v8.9h11.84l-0.24,1.51h-13.24v-21.2h12.99v1.51h-11.36v7.75h10.81V397.45z"/>
		<path d="M154.86,400.54l-2.7,7.33h-1.67l7.78-21.2h1.94l8.12,21.2h-1.79l-2.76-7.33H154.86z M163.25,399.02
			c-2.36-6.3-3.57-9.33-4-10.75h-0.03c-0.52,1.61-1.88,5.36-3.79,10.75H163.25z"/>
		<path d="M172.1,407.87v-21.2h2.42c3.3,5.09,11.06,16.93,12.39,19.23h0.03c-0.18-3.06-0.15-6.18-0.15-9.63v-9.6h1.67v21.2h-2.24
			c-3.15-4.91-11.03-17.23-12.54-19.57h-0.03c0.15,2.79,0.12,5.88,0.12,9.72v9.84H172.1z"/>
		<path d="M194.69,386.66h7.03c5.82,0,9.84,4.06,9.84,10.42c0,6.33-3.94,10.78-9.87,10.78h-7V386.66z M196.33,406.35h5.12
			c5.6,0,8.36-3.94,8.36-9.18c0-4.66-2.48-9-8.36-9h-5.12V406.35z"/>
		<path d="M224.11,386.66h12.84v1.51h-11.21v8h10.51v1.51h-10.51v10.18h-1.64V386.66z"/>
		<path d="M242.16,386.66v12.84c0,5.63,3.18,7.09,6.18,7.09c3.54,0,6.18-1.48,6.18-7.09v-12.84h1.67v12.75
			c0,6.63-3.51,8.69-7.91,8.69c-4.18,0-7.81-2.27-7.81-8.42v-13.02H242.16z"/>
		<path d="M262.13,407.87v-21.2h2.42c3.3,5.09,11.06,16.93,12.39,19.23h0.03c-0.18-3.06-0.15-6.18-0.15-9.63v-9.6h1.67v21.2h-2.24
			c-3.15-4.91-11.03-17.23-12.54-19.57h-0.03c0.15,2.79,0.12,5.88,0.12,9.72v9.84H262.13z"/>
	</g>
</g>
<g>
	<path d="M43.05,662.62c-0.74,0.1-0.79,0.17-0.79,0.88v1.01c0,0.42,0.01,0.82,0.07,1.14c-0.74,0.17-1.72,0.43-2.72,0.43
		c-2.72,0-4.38-1.69-4.38-4.1c0-2.53,2.06-4.04,4.46-4.04c1.22,0,2.12,0.24,2.49,0.3c0.02,0.44,0.08,1.17,0.18,1.93l-0.36,0.07
		c-0.29-1.02-0.64-1.45-1.39-1.7c-0.28-0.1-0.77-0.16-1.12-0.16c-1.83,0-3.02,1.26-3.02,3.45c0,1.91,0.98,3.8,3.31,3.8
		c0.41,0,0.78-0.08,1.02-0.2c0.25-0.14,0.41-0.28,0.41-0.77v-0.98c0-0.88-0.1-0.97-1.25-1.06v-0.35h3.08V662.62z"/>
	<path d="M47.19,665.89v-0.34c0.7-0.07,0.79-0.13,0.79-0.92v-1.97c0-1-0.38-1.5-1.19-1.49c-0.46,0-0.94,0.23-1.27,0.62v2.83
		c0,0.78,0.1,0.85,0.82,0.92v0.34h-2.61v-0.34c0.7-0.06,0.85-0.12,0.85-0.92v-5.78c0-0.64-0.04-0.79-0.84-0.86v-0.31
		c0.64-0.06,1.36-0.24,1.79-0.41c0,0.47,0,1,0,1.49v2.6c0.43-0.43,1.09-0.88,1.74-0.88c0.98,0,1.67,0.61,1.67,2.05v2.11
		c0,0.79,0.1,0.85,0.79,0.91v0.34H47.19z"/>
	<path d="M54.26,666.04c-0.18,0-0.44-0.1-0.56-0.23c-0.16-0.16-0.23-0.32-0.29-0.54c-0.48,0.32-1.07,0.77-1.44,0.77
		c-0.85,0-1.46-0.71-1.46-1.48c0-0.59,0.32-0.97,0.98-1.2c0.73-0.25,1.63-0.56,1.9-0.78v-0.24c0-0.85-0.43-1.34-1.06-1.34
		c-0.28,0-0.44,0.13-0.56,0.28c-0.13,0.17-0.22,0.43-0.32,0.78c-0.06,0.19-0.17,0.28-0.35,0.28c-0.23,0-0.53-0.24-0.53-0.53
		c0-0.17,0.16-0.31,0.4-0.48c0.35-0.25,1.04-0.7,1.73-0.84c0.36,0,0.73,0.11,1.01,0.32c0.42,0.36,0.61,0.77,0.61,1.39v2.31
		c0,0.55,0.2,0.72,0.42,0.72c0.14,0,0.3-0.06,0.43-0.13l0.12,0.34L54.26,666.04z M53.39,663c-0.26,0.13-0.84,0.38-1.12,0.5
		c-0.46,0.2-0.73,0.43-0.73,0.88c0,0.64,0.48,0.92,0.86,0.92c0.31,0,0.74-0.19,0.98-0.43C53.39,664.31,53.39,663.56,53.39,663z"/>
	<path d="M59.23,665.89v-0.34c0.7-0.07,0.77-0.16,0.77-0.97v-1.98c0-0.84-0.3-1.4-1.09-1.4c-0.49,0-0.96,0.29-1.33,0.62v2.81
		c0,0.83,0.07,0.85,0.78,0.92v0.34h-2.59v-0.34c0.79-0.08,0.86-0.13,0.86-0.92v-2.47c0-0.78-0.08-0.82-0.73-0.92v-0.31
		c0.59-0.1,1.18-0.25,1.68-0.48c0,0.28,0,0.66,0,0.95c0.24-0.17,0.5-0.35,0.82-0.55c0.34-0.22,0.65-0.36,1-0.36
		c0.96,0,1.56,0.71,1.56,1.87v2.28c0,0.82,0.07,0.85,0.77,0.92v0.34H59.23z"/>
	<path d="M66.27,666.04c-0.18,0-0.44-0.1-0.56-0.23c-0.16-0.16-0.23-0.32-0.29-0.54c-0.48,0.32-1.07,0.77-1.44,0.77
		c-0.85,0-1.46-0.71-1.46-1.48c0-0.59,0.32-0.97,0.98-1.2c0.73-0.25,1.63-0.56,1.9-0.78v-0.24c0-0.85-0.43-1.34-1.06-1.34
		c-0.28,0-0.44,0.13-0.56,0.28c-0.13,0.17-0.22,0.43-0.32,0.78c-0.06,0.19-0.17,0.28-0.35,0.28c-0.23,0-0.53-0.24-0.53-0.53
		c0-0.17,0.16-0.31,0.4-0.48c0.35-0.25,1.04-0.7,1.73-0.84c0.36,0,0.73,0.11,1.01,0.32c0.42,0.36,0.61,0.77,0.61,1.39v2.31
		c0,0.55,0.2,0.72,0.42,0.72c0.14,0,0.3-0.06,0.43-0.13l0.12,0.34L66.27,666.04z M65.4,663c-0.26,0.13-0.84,0.38-1.12,0.5
		c-0.46,0.2-0.73,0.43-0.73,0.88c0,0.64,0.48,0.92,0.86,0.92c0.31,0,0.74-0.19,0.98-0.43C65.4,664.31,65.4,663.56,65.4,663z"/>
	<path d="M74.9,659.92c-0.2-0.79-0.54-1.57-1.67-1.57c-0.94,0-1.26,0.68-1.26,1.31c0,0.83,0.53,1.25,1.52,1.76
		c1.44,0.74,2.06,1.3,2.06,2.43c0,1.26-1.09,2.22-2.64,2.22c-0.72,0-1.34-0.2-1.83-0.4c-0.1-0.34-0.24-1.15-0.32-1.8l0.37-0.1
		c0.24,0.8,0.77,1.85,2.01,1.85c0.86,0,1.39-0.6,1.39-1.38c0-0.92-0.49-1.3-1.55-1.87c-1.26-0.68-1.97-1.26-1.97-2.38
		c0-1.07,0.89-2.07,2.47-2.07c0.67,0,1.33,0.18,1.58,0.23c0.05,0.43,0.1,0.91,0.19,1.69L74.9,659.92z"/>
	<path d="M76.32,660.88c0.56-0.08,1.19-0.29,1.74-0.52c0,0.29,0,0.67,0,0.96c0.04-0.02,1-0.58,1.04-0.6
		c0.29-0.16,0.54-0.24,0.7-0.24c1.32,0,2.12,1.1,2.12,2.29c0,1.82-1.44,2.97-3.01,3.26c-0.36-0.01-0.68-0.12-0.85-0.22v1.62
		c0,0.89,0.1,0.96,1.02,1.04v0.34h-2.84v-0.34c0.78-0.08,0.88-0.14,0.88-0.95v-5.46c0-0.72-0.02-0.77-0.79-0.88V660.88z
		 M78.06,664.98c0.28,0.28,0.74,0.47,1.14,0.47c1.04,0,1.72-0.88,1.72-2.22c0-1.3-0.76-2.03-1.61-2.03c-0.42,0-0.92,0.28-1.25,0.52
		V664.98z"/>
	<path d="M87.26,664.87c-0.77,0.96-1.61,1.16-1.99,1.16c-1.46,0-2.35-1.2-2.35-2.58c0-0.82,0.29-1.57,0.78-2.1
		c0.5-0.56,1.16-0.88,1.79-0.88c1.04,0,1.83,0.9,1.83,1.86c-0.01,0.24-0.05,0.35-0.24,0.4c-0.24,0.05-1.78,0.16-3.2,0.2
		c-0.04,1.61,0.95,2.27,1.8,2.27c0.49,0,0.95-0.2,1.39-0.61L87.26,664.87z M85.2,660.94c-0.55,0-1.09,0.52-1.26,1.49
		c0.67,0,1.34,0,2.05-0.04c0.22,0,0.29-0.06,0.29-0.24C86.29,661.51,85.87,660.94,85.2,660.94z"/>
	<path d="M92.69,664.81c-0.53,0.7-1.33,1.22-2.05,1.22c-1.52,0-2.42-1.24-2.42-2.52c0-0.95,0.41-1.74,1.21-2.35
		c0.64-0.49,1.36-0.68,1.82-0.68c0.54,0,0.94,0.17,1.12,0.32c0.17,0.13,0.19,0.22,0.19,0.35c0,0.29-0.3,0.54-0.43,0.54
		c-0.06,0-0.11-0.02-0.23-0.12c-0.37-0.34-0.78-0.5-1.21-0.5c-0.79,0-1.49,0.67-1.49,1.92c-0.01,1.67,1.13,2.22,1.82,2.22
		c0.5,0,0.91-0.13,1.46-0.66L92.69,664.81z"/>
	<path d="M93.34,665.89v-0.34c0.76-0.07,0.84-0.13,0.84-0.95v-2.47c0-0.74-0.04-0.79-0.76-0.91v-0.29c0.62-0.11,1.19-0.26,1.7-0.48
		c0,0.5,0,1.01,0,1.51v2.64c0,0.82,0.08,0.88,0.86,0.95v0.34H93.34z M94.58,659.28c-0.34,0-0.64-0.3-0.64-0.64
		c0-0.38,0.3-0.66,0.65-0.66c0.34,0,0.61,0.28,0.61,0.66C95.21,658.98,94.93,659.28,94.58,659.28z"/>
	<path d="M100.39,666.04c-0.18,0-0.44-0.1-0.56-0.23c-0.16-0.16-0.23-0.32-0.29-0.54c-0.48,0.32-1.07,0.77-1.44,0.77
		c-0.85,0-1.46-0.71-1.46-1.48c0-0.59,0.32-0.97,0.98-1.2c0.73-0.25,1.63-0.56,1.89-0.78v-0.24c0-0.85-0.43-1.34-1.06-1.34
		c-0.28,0-0.44,0.13-0.56,0.28c-0.13,0.17-0.22,0.43-0.32,0.78c-0.06,0.19-0.17,0.28-0.35,0.28c-0.23,0-0.53-0.24-0.53-0.53
		c0-0.17,0.16-0.31,0.4-0.48c0.35-0.25,1.04-0.7,1.73-0.84c0.36,0,0.73,0.11,1.01,0.32c0.42,0.36,0.61,0.77,0.61,1.39v2.31
		c0,0.55,0.2,0.72,0.42,0.72c0.14,0,0.3-0.06,0.43-0.13l0.12,0.34L100.39,666.04z M99.51,663c-0.26,0.13-0.84,0.38-1.12,0.5
		c-0.46,0.2-0.73,0.43-0.73,0.88c0,0.64,0.48,0.92,0.86,0.92c0.31,0,0.74-0.19,0.98-0.43C99.51,664.31,99.51,663.56,99.51,663z"/>
	<path d="M101.74,665.89v-0.34c0.77-0.07,0.86-0.13,0.86-0.92v-5.75c0-0.73-0.06-0.8-0.83-0.9v-0.31c0.65-0.07,1.39-0.26,1.78-0.41
		c0,0.56,0,1.14,0,1.7v5.66c0,0.79,0.07,0.85,0.85,0.92v0.34H101.74z"/>
	<path d="M114.2,663.98c-0.07,0.31-0.4,1.55-0.52,1.91h-5.83v-0.34c1.12-0.08,1.2-0.19,1.2-1.17v-4.74c0-1.07-0.13-1.13-1.03-1.21
		v-0.34h3.67c1.13,0,1.59-0.01,1.74-0.02c0.01,0.3,0.06,1.2,0.11,1.83l-0.36,0.06c-0.11-0.41-0.23-0.66-0.36-0.91
		c-0.19-0.4-0.47-0.48-1.19-0.48h-1.14c-0.37,0-0.4,0.04-0.4,0.38v2.65h1.33c0.9,0,0.96-0.18,1.1-1h0.37v2.47h-0.37
		c-0.16-0.86-0.25-0.98-1.12-0.98h-1.32v2.39c0,0.84,0.26,0.91,0.86,0.92h1.12c0.73,0,0.85-0.11,1.12-0.42
		c0.23-0.25,0.48-0.74,0.65-1.1L114.2,663.98z"/>
	<path d="M120.74,665.59c-0.25,0.05-1.15,0.19-1.86,0.44c0-0.25,0-0.53,0-0.78c-0.22,0.13-0.53,0.3-0.74,0.43
		c-0.48,0.28-0.8,0.35-0.95,0.35c-0.96,0-2.23-0.96-2.23-2.64c0-1.67,1.46-2.92,3.11-2.92c0.17,0,0.56,0.02,0.82,0.13v-1.76
		c0-0.77-0.08-0.79-0.94-0.86v-0.31c0.6-0.08,1.44-0.25,1.88-0.41c0,0.44,0,0.97,0,1.46v5.77c0,0.62,0.08,0.71,0.53,0.73l0.38,0.02
		V665.59z M118.88,661.56c-0.28-0.42-0.79-0.61-1.26-0.61c-0.58,0-1.59,0.38-1.59,2.11c0,1.45,0.9,2.22,1.67,2.23
		c0.43,0,0.9-0.22,1.19-0.43V661.56z"/>
	<path d="M121.31,665.89v-0.34c0.76-0.07,0.84-0.13,0.84-0.95v-2.47c0-0.74-0.04-0.79-0.76-0.91v-0.29c0.62-0.11,1.19-0.26,1.7-0.48
		c0,0.5,0,1.01,0,1.51v2.64c0,0.82,0.08,0.88,0.86,0.95v0.34H121.31z M122.55,659.28c-0.34,0-0.64-0.3-0.64-0.64
		c0-0.38,0.3-0.66,0.65-0.66c0.33,0,0.61,0.28,0.61,0.66C123.18,658.98,122.9,659.28,122.55,659.28z"/>
	<path d="M126.85,665.88c-0.2,0.11-0.4,0.16-0.52,0.16c-0.77,0-1.17-0.47-1.17-1.43v-3.49h-0.83l-0.05-0.14l0.32-0.35h0.55v-1.01
		c0.23-0.24,0.58-0.55,0.8-0.79l0.18,0.02c-0.02,0.5-0.04,1.2-0.04,1.78h1.37c0.11,0.12,0.07,0.38-0.07,0.49h-1.29v3.07
		c0,0.97,0.38,1.15,0.7,1.15c0.29,0,0.56-0.11,0.73-0.19l0.11,0.31L126.85,665.88z"/>
	<path d="M128.13,665.89v-0.34c0.76-0.07,0.84-0.13,0.84-0.95v-2.47c0-0.74-0.04-0.79-0.76-0.91v-0.29c0.62-0.11,1.19-0.26,1.7-0.48
		c0,0.5,0,1.01,0,1.51v2.64c0,0.82,0.08,0.88,0.86,0.95v0.34H128.13z M129.38,659.28c-0.34,0-0.64-0.3-0.64-0.64
		c0-0.38,0.3-0.66,0.65-0.66c0.33,0,0.61,0.28,0.61,0.66C130.01,658.98,129.73,659.28,129.38,659.28z"/>
	<path d="M134.07,660.48c1.5,0,2.61,1.14,2.61,2.69c0,1.94-1.44,2.87-2.61,2.87c-1.66,0-2.66-1.33-2.66-2.67
		C131.41,661.41,132.93,660.48,134.07,660.48z M133.93,660.89c-0.73,0-1.39,0.71-1.39,2.1c0,1.52,0.67,2.63,1.66,2.63
		c0.74,0,1.37-0.54,1.37-2.18C135.56,662.03,134.99,660.89,133.93,660.89z"/>
	<path d="M140.91,665.89v-0.34c0.7-0.07,0.77-0.16,0.77-0.97v-1.98c0-0.84-0.3-1.4-1.09-1.4c-0.49,0-0.96,0.29-1.33,0.62v2.81
		c0,0.83,0.07,0.85,0.78,0.92v0.34h-2.59v-0.34c0.79-0.08,0.86-0.13,0.86-0.92v-2.47c0-0.78-0.08-0.82-0.73-0.92v-0.31
		c0.59-0.1,1.17-0.25,1.68-0.48c0,0.28,0,0.66,0,0.95c0.24-0.17,0.5-0.35,0.82-0.55c0.34-0.22,0.65-0.36,1-0.36
		c0.96,0,1.56,0.71,1.56,1.87v2.28c0,0.82,0.07,0.85,0.77,0.92v0.34H140.91z"/>
	<path d="M149.4,660.6c0.2-0.08,0.38-0.12,0.53-0.12c1.28,0,2.36,1.12,2.36,2.54c0,1.62-1.39,3.02-2.96,3.01
		c-0.52,0-1.19-0.12-1.85-0.43c0-0.31,0-0.64,0-0.96v-5.78c0-0.74-0.04-0.82-0.8-0.88v-0.31c0.56-0.07,1.31-0.25,1.75-0.41
		c0,0.47,0,0.95,0,1.43v2.33L149.4,660.6z M148.43,664.5c0,0.19,0.01,0.3,0.06,0.42c0.14,0.3,0.61,0.65,1.19,0.65
		c1.03,0,1.55-0.89,1.55-2.24c0-1.37-0.83-2.17-1.82-2.17c-0.35,0-0.74,0.11-0.97,0.23V664.5z"/>
	<path d="M158.47,660.95c-0.62,0.1-0.75,0.19-1.05,0.88c-0.3,0.67-0.62,1.49-1.45,3.57c-0.78,1.92-1,2.66-1.19,3.29
		c-0.07,0.25-0.2,0.31-0.36,0.31c-0.38,0-0.73-0.28-0.73-0.58c0-0.16,0.08-0.26,0.26-0.42c0.38-0.3,0.66-0.59,0.8-0.89
		c0.25-0.5,0.43-0.92,0.49-1.08c0.05-0.18,0.05-0.29-0.02-0.49c-0.47-1.37-1.12-2.84-1.47-3.71c-0.26-0.66-0.37-0.8-1.03-0.89v-0.32
		h2.42v0.32c-0.55,0.08-0.61,0.2-0.46,0.65l1.16,2.95c0.34-0.83,0.82-2.16,1.07-2.92c0.14-0.46,0.06-0.59-0.64-0.68v-0.32h2.19
		V660.95z"/>
	<path d="M161.54,658.09h3.2v0.34c-0.94,0.08-1.1,0.17-1.1,1.24v2.06c0.24-0.02,0.52-0.22,0.86-0.55c0.67-0.64,1.48-1.45,2.03-2.08
		c0.36-0.41,0.32-0.56-0.19-0.64l-0.34-0.04v-0.34h2.92v0.34c-0.9,0.11-1.21,0.17-2.02,1c-0.36,0.35-1.29,1.26-2.06,2.01
		c0.91,1.08,2.24,2.61,2.87,3.27c0.61,0.66,0.77,0.75,1.51,0.84v0.34h-1.92c-0.92-1.04-1.9-2.21-2.99-3.48
		c-0.28-0.34-0.48-0.36-0.67-0.35v2.28c0,1.04,0.11,1.13,1.1,1.21v0.34h-3.2v-0.34c0.98-0.08,1.08-0.17,1.08-1.21v-4.68
		c0-1.08-0.08-1.16-1.08-1.24V658.09z"/>
	<path d="M172.32,660.48c1.5,0,2.61,1.14,2.61,2.69c0,1.94-1.44,2.87-2.61,2.87c-1.66,0-2.66-1.33-2.66-2.67
		C169.65,661.41,171.18,660.48,172.32,660.48z M172.17,660.89c-0.73,0-1.39,0.71-1.39,2.1c0,1.52,0.67,2.63,1.66,2.63
		c0.74,0,1.37-0.54,1.37-2.18C173.8,662.03,173.23,660.89,172.17,660.89z"/>
	<path d="M181.61,665.89c-0.65,0-1.36,0.01-1.61,0.02c-0.07-0.08-1.96-2.31-2.03-2.39c-0.17-0.19-0.24-0.25-0.35-0.25
		c-0.05,0-0.14,0-0.22,0.02v1.33c0,0.8,0.06,0.85,0.84,0.92v0.34h-2.65v-0.34c0.8-0.07,0.86-0.16,0.86-0.92v-5.73
		c0-0.78-0.08-0.8-0.83-0.91v-0.31c0.62-0.06,1.34-0.24,1.78-0.41c0,0.52,0,1.01,0,1.52v4.2c0.36-0.08,0.59-0.23,0.77-0.42
		c0.28-0.28,0.72-0.82,0.92-1.12c0.25-0.35,0.16-0.44-0.42-0.49v-0.34l2.47-0.11v0.32c-0.84,0.13-1.08,0.23-1.59,0.77
		c-0.23,0.24-0.77,0.85-1.02,1.16c0.24,0.34,1.46,1.73,1.86,2.15c0.58,0.58,0.74,0.61,1.21,0.64V665.89z"/>
	<path d="M184.44,660.48c1.5,0,2.61,1.14,2.61,2.69c0,1.94-1.44,2.87-2.61,2.87c-1.66,0-2.66-1.33-2.66-2.67
		C181.77,661.41,183.3,660.48,184.44,660.48z M184.29,660.89c-0.73,0-1.39,0.71-1.39,2.1c0,1.52,0.67,2.63,1.66,2.63
		c0.74,0,1.37-0.54,1.37-2.18C185.92,662.03,185.35,660.89,184.29,660.89z"/>
	<path d="M195.01,659.92c-0.2-0.79-0.54-1.57-1.67-1.57c-0.94,0-1.26,0.68-1.26,1.31c0,0.83,0.53,1.25,1.52,1.76
		c1.44,0.74,2.06,1.3,2.06,2.43c0,1.26-1.09,2.22-2.64,2.22c-0.72,0-1.34-0.2-1.83-0.4c-0.1-0.34-0.24-1.15-0.32-1.8l0.37-0.1
		c0.24,0.8,0.77,1.85,2.01,1.85c0.86,0,1.39-0.6,1.39-1.38c0-0.92-0.49-1.3-1.55-1.87c-1.26-0.68-1.97-1.26-1.97-2.38
		c0-1.07,0.89-2.07,2.47-2.07c0.67,0,1.33,0.18,1.58,0.23c0.05,0.43,0.1,0.91,0.19,1.69L195.01,659.92z"/>
	<path d="M199.44,660.48c1.5,0,2.61,1.14,2.61,2.69c0,1.94-1.44,2.87-2.61,2.87c-1.66,0-2.66-1.33-2.66-2.67
		C196.77,661.41,198.3,660.48,199.44,660.48z M199.29,660.89c-0.73,0-1.39,0.71-1.39,2.1c0,1.52,0.67,2.63,1.66,2.63
		c0.74,0,1.37-0.54,1.37-2.18C200.92,662.03,200.35,660.89,199.29,660.89z"/>
	<path d="M204.58,661.12v3.47c0,0.86,0.14,0.88,1.06,0.97v0.34h-2.85v-0.34c0.77-0.07,0.85-0.12,0.85-0.9v-3.54h-0.85l-0.05-0.13
		l0.26-0.36h0.64v-0.32c0-0.37,0.05-0.73,0.13-1c0.1-0.26,0.29-0.84,0.92-1.39c0.43-0.38,0.88-0.59,1.34-0.65
		c0.41,0.01,0.78,0.16,0.97,0.4c0.11,0.12,0.11,0.29,0.05,0.43c-0.04,0.1-0.12,0.22-0.24,0.31s-0.23,0.08-0.34-0.02
		c-0.24-0.23-0.59-0.47-0.98-0.47c-0.32,0-0.49,0.14-0.62,0.37c-0.14,0.23-0.29,0.88-0.29,1.79v0.55h2.28v-0.98
		c0.23-0.24,0.58-0.55,0.8-0.79l0.18,0.02c-0.02,0.48-0.04,1.17-0.04,1.75h1.37c0.12,0.12,0.08,0.38-0.07,0.49h-1.29v3.07
		c0,0.97,0.4,1.15,0.71,1.15c0.29,0,0.58-0.12,0.73-0.2l0.12,0.32l-0.8,0.42c-0.22,0.11-0.41,0.16-0.53,0.16
		c-0.77,0-1.18-0.47-1.18-1.43v-3.49H204.58z"/>
	<path d="M217.98,660.95c-0.61,0.1-0.72,0.23-0.97,0.9c-0.35,0.92-0.92,2.59-1.44,4.17h-0.37c-0.48-1.28-0.97-2.53-1.44-3.77
		c-0.44,1.1-0.98,2.43-1.46,3.77h-0.36c-0.43-1.43-0.89-2.84-1.38-4.28c-0.22-0.65-0.32-0.72-0.91-0.79v-0.32h2.49v0.32
		c-0.72,0.12-0.77,0.18-0.6,0.73c0.28,0.92,0.6,1.91,0.89,2.81c0.48-1.22,0.96-2.47,1.43-3.8h0.32c0.44,1.25,0.94,2.54,1.44,3.84
		c0.26-0.73,0.65-1.91,0.88-2.78c0.16-0.62,0.06-0.68-0.75-0.79v-0.32h2.24V660.95z"/>
	<path d="M222.2,666.04c-0.18,0-0.44-0.1-0.56-0.23c-0.16-0.16-0.23-0.32-0.29-0.54c-0.48,0.32-1.07,0.77-1.44,0.77
		c-0.85,0-1.46-0.71-1.46-1.48c0-0.59,0.32-0.97,0.98-1.2c0.73-0.25,1.63-0.56,1.89-0.78v-0.24c0-0.85-0.43-1.34-1.06-1.34
		c-0.28,0-0.44,0.13-0.56,0.28c-0.13,0.17-0.22,0.43-0.32,0.78c-0.06,0.19-0.17,0.28-0.35,0.28c-0.23,0-0.53-0.24-0.53-0.53
		c0-0.17,0.16-0.31,0.4-0.48c0.35-0.25,1.04-0.7,1.73-0.84c0.36,0,0.73,0.11,1.01,0.32c0.42,0.36,0.61,0.77,0.61,1.39v2.31
		c0,0.55,0.2,0.72,0.42,0.72c0.14,0,0.3-0.06,0.43-0.13l0.12,0.34L222.2,666.04z M221.32,663c-0.26,0.13-0.84,0.38-1.12,0.5
		c-0.46,0.2-0.73,0.43-0.73,0.88c0,0.64,0.48,0.92,0.86,0.92c0.31,0,0.74-0.19,0.98-0.43C221.32,664.31,221.32,663.56,221.32,663z"
		/>
	<path d="M226.48,665.89h-2.76v-0.34c0.76-0.07,0.83-0.13,0.83-0.91v-2.49c0-0.79-0.05-0.83-0.74-0.91v-0.3
		c0.59-0.1,1.13-0.24,1.69-0.49c0,0.4,0,0.92,0,1.32c0.42-0.62,0.92-1.28,1.52-1.28c0.44,0,0.7,0.28,0.7,0.58
		c0,0.28-0.19,0.54-0.41,0.66c-0.12,0.07-0.22,0.06-0.31-0.02c-0.18-0.18-0.32-0.3-0.54-0.3c-0.25,0-0.7,0.37-0.96,0.98v2.25
		c0,0.79,0.06,0.85,0.98,0.92V665.89z"/>
	<path d="M232.48,664.87c-0.77,0.96-1.61,1.16-1.99,1.16c-1.46,0-2.35-1.2-2.35-2.58c0-0.82,0.29-1.57,0.78-2.1
		c0.5-0.56,1.16-0.88,1.79-0.88c1.04,0,1.83,0.9,1.83,1.86c-0.01,0.24-0.05,0.35-0.24,0.4c-0.24,0.05-1.77,0.16-3.2,0.2
		c-0.04,1.61,0.95,2.27,1.8,2.27c0.49,0,0.95-0.2,1.39-0.61L232.48,664.87z M230.42,660.94c-0.55,0-1.09,0.52-1.26,1.49
		c0.67,0,1.34,0,2.05-0.04c0.22,0,0.29-0.06,0.29-0.24C231.51,661.51,231.09,660.94,230.42,660.94z"/>
	<path d="M243.4,663.97c-0.17,0.58-0.48,1.44-0.66,1.81c-0.35,0.07-1.28,0.29-2.2,0.29c-2.87,0-4.33-1.91-4.33-4
		c0-2.45,1.86-4.14,4.55-4.14c1.03,0,1.87,0.22,2.27,0.28c0.05,0.54,0.13,1.26,0.23,1.86l-0.37,0.08c-0.24-0.8-0.53-1.3-1.14-1.55
		c-0.31-0.14-0.8-0.23-1.26-0.23c-1.98,0-3.02,1.46-3.02,3.44c0,2.31,1.2,3.8,3.14,3.8c1.22,0,1.82-0.56,2.43-1.76L243.4,663.97z"/>
	<path d="M247.15,660.48c1.5,0,2.61,1.14,2.61,2.69c0,1.94-1.44,2.87-2.61,2.87c-1.66,0-2.66-1.33-2.66-2.67
		C244.48,661.41,246.01,660.48,247.15,660.48z M247,660.89c-0.73,0-1.39,0.71-1.39,2.1c0,1.52,0.67,2.63,1.66,2.63
		c0.74,0,1.37-0.54,1.37-2.18C248.63,662.03,248.06,660.89,247,660.89z"/>
	<path d="M257.13,665.89v-0.34c0.71-0.07,0.79-0.12,0.79-0.96v-2c0-0.85-0.29-1.39-1.03-1.39c-0.46,0-0.88,0.25-1.33,0.62
		c0.01,0.14,0.04,0.29,0.04,0.52v2.33c0,0.75,0.11,0.82,0.77,0.89v0.34h-2.57v-0.34c0.74-0.07,0.85-0.12,0.85-0.91v-2.06
		c0-0.89-0.28-1.38-1.01-1.38c-0.48,0-0.95,0.32-1.32,0.62v2.82c0,0.79,0.08,0.84,0.77,0.91v0.34h-2.58v-0.34
		c0.79-0.07,0.86-0.12,0.86-0.91v-2.48c0-0.77-0.05-0.82-0.72-0.94v-0.3c0.56-0.08,1.13-0.24,1.67-0.48c0,0.29,0,0.68,0,0.97
		c0.25-0.19,0.5-0.4,0.89-0.62c0.3-0.19,0.56-0.31,0.95-0.31c0.58,0,1.07,0.36,1.31,0.98c0.33-0.26,0.65-0.47,0.95-0.67
		c0.26-0.17,0.6-0.31,0.95-0.31c0.94,0,1.51,0.67,1.51,1.85v2.31c0,0.8,0.07,0.84,0.76,0.91v0.34H257.13z"/>
	<path d="M260.19,660.88c0.56-0.08,1.19-0.29,1.74-0.52c0,0.29,0,0.67,0,0.96c0.04-0.02,1-0.58,1.04-0.6
		c0.29-0.16,0.54-0.24,0.7-0.24c1.32,0,2.12,1.1,2.12,2.29c0,1.82-1.44,2.97-3.01,3.26c-0.36-0.01-0.68-0.12-0.85-0.22v1.62
		c0,0.89,0.1,0.96,1.02,1.04v0.34h-2.84v-0.34c0.78-0.08,0.88-0.14,0.88-0.95v-5.46c0-0.72-0.02-0.77-0.79-0.88V660.88z
		 M261.93,664.98c0.28,0.28,0.74,0.47,1.14,0.47c1.04,0,1.71-0.88,1.71-2.22c0-1.3-0.75-2.03-1.61-2.03c-0.42,0-0.92,0.28-1.25,0.52
		V664.98z"/>
	<path d="M270.47,666.04c-0.18,0-0.44-0.1-0.56-0.23c-0.16-0.16-0.23-0.32-0.29-0.54c-0.48,0.32-1.07,0.77-1.44,0.77
		c-0.85,0-1.46-0.71-1.46-1.48c0-0.59,0.32-0.97,0.98-1.2c0.73-0.25,1.63-0.56,1.89-0.78v-0.24c0-0.85-0.43-1.34-1.06-1.34
		c-0.28,0-0.44,0.13-0.56,0.28c-0.13,0.17-0.22,0.43-0.32,0.78c-0.06,0.19-0.17,0.28-0.35,0.28c-0.23,0-0.53-0.24-0.53-0.53
		c0-0.17,0.16-0.31,0.4-0.48c0.35-0.25,1.04-0.7,1.73-0.84c0.36,0,0.73,0.11,1.01,0.32c0.42,0.36,0.61,0.77,0.61,1.39v2.31
		c0,0.55,0.2,0.72,0.42,0.72c0.14,0,0.3-0.06,0.43-0.13l0.12,0.34L270.47,666.04z M269.6,663c-0.26,0.13-0.84,0.38-1.12,0.5
		c-0.46,0.2-0.73,0.43-0.73,0.88c0,0.64,0.48,0.92,0.86,0.92c0.31,0,0.74-0.19,0.98-0.43C269.6,664.31,269.6,663.56,269.6,663z"/>
	<path d="M275.44,665.89v-0.34c0.7-0.07,0.77-0.16,0.77-0.97v-1.98c0-0.84-0.3-1.4-1.09-1.4c-0.49,0-0.96,0.29-1.33,0.62v2.81
		c0,0.83,0.07,0.85,0.78,0.92v0.34h-2.59v-0.34c0.79-0.08,0.86-0.13,0.86-0.92v-2.47c0-0.78-0.08-0.82-0.73-0.92v-0.31
		c0.59-0.1,1.17-0.25,1.68-0.48c0,0.28,0,0.66,0,0.95c0.24-0.17,0.5-0.35,0.82-0.55c0.34-0.22,0.65-0.36,1-0.36
		c0.96,0,1.56,0.71,1.56,1.87v2.28c0,0.82,0.07,0.85,0.77,0.92v0.34H275.44z"/>
	<path d="M283.66,660.95c-0.62,0.1-0.75,0.19-1.05,0.88c-0.3,0.67-0.62,1.49-1.45,3.57c-0.78,1.92-1,2.66-1.19,3.29
		c-0.07,0.25-0.2,0.31-0.36,0.31c-0.38,0-0.73-0.28-0.73-0.58c0-0.16,0.08-0.26,0.26-0.42c0.38-0.3,0.66-0.59,0.8-0.89
		c0.25-0.5,0.43-0.92,0.49-1.08c0.05-0.18,0.05-0.29-0.02-0.49c-0.47-1.37-1.12-2.84-1.47-3.71c-0.26-0.66-0.37-0.8-1.03-0.89v-0.32
		h2.42v0.32c-0.55,0.08-0.61,0.2-0.46,0.65l1.16,2.95c0.34-0.83,0.82-2.16,1.07-2.92c0.14-0.46,0.06-0.59-0.64-0.68v-0.32h2.19
		V660.95z"/>
</g>
<g>
	<path class="st2" d="M268.48,36.83h-4.75c-0.9,0-1.63-0.73-1.63-1.63v-4.75c0-0.9,0.73-1.63,1.63-1.63h4.75
		c0.9,0,1.63,0.73,1.63,1.63v4.75C270.11,36.1,269.38,36.83,268.48,36.83z"/>
	<path class="st2" d="M279.48,36.83h-4.75c-0.9,0-1.63-0.73-1.63-1.63v-4.75c0-0.9,0.73-1.63,1.63-1.63h4.75
		c0.9,0,1.63,0.73,1.63,1.63v4.75C281.11,36.1,280.38,36.83,279.48,36.83z"/>
	<path class="st2" d="M290.48,36.83h-4.75c-0.9,0-1.63-0.73-1.63-1.63v-4.75c0-0.9,0.73-1.63,1.63-1.63h4.75
		c0.9,0,1.63,0.73,1.63,1.63v4.75C292.11,36.1,291.38,36.83,290.48,36.83z"/>
	<path class="st2" d="M268.48,47.83h-4.75c-0.9,0-1.63-0.73-1.63-1.63v-4.75c0-0.9,0.73-1.63,1.63-1.63h4.75
		c0.9,0,1.63,0.73,1.63,1.63v4.75C270.11,47.1,269.38,47.83,268.48,47.83z"/>
	<path class="st2" d="M279.48,47.83h-4.75c-0.9,0-1.63-0.73-1.63-1.63v-4.75c0-0.9,0.73-1.63,1.63-1.63h4.75
		c0.9,0,1.63,0.73,1.63,1.63v4.75C281.11,47.1,280.38,47.83,279.48,47.83z"/>
	<path class="st2" d="M290.48,47.83h-4.75c-0.9,0-1.63-0.73-1.63-1.63v-4.75c0-0.9,0.73-1.63,1.63-1.63h4.75
		c0.9,0,1.63,0.73,1.63,1.63v4.75C292.11,47.1,291.38,47.83,290.48,47.83z"/>
	<path class="st2" d="M268.48,58.83h-4.75c-0.9,0-1.63-0.73-1.63-1.63v-4.75c0-0.9,0.73-1.63,1.63-1.63h4.75
		c0.9,0,1.63,0.73,1.63,1.63v4.75C270.11,58.1,269.38,58.83,268.48,58.83z"/>
	<path class="st2" d="M279.48,58.83h-4.75c-0.9,0-1.63-0.73-1.63-1.63v-4.75c0-0.9,0.73-1.63,1.63-1.63h4.75
		c0.9,0,1.63,0.73,1.63,1.63v4.75C281.11,58.1,280.38,58.83,279.48,58.83z"/>
	<path class="st2" d="M290.48,58.83h-4.75c-0.9,0-1.63-0.73-1.63-1.63v-4.75c0-0.9,0.73-1.63,1.63-1.63h4.75
		c0.9,0,1.63,0.73,1.63,1.63v4.75C292.11,58.1,291.38,58.83,290.48,58.83z"/>
</g>
</svg>
